HIERARCHY
ROOT Root
{
  OFFSET 0.0 0.0 0.0
  CHANNELS 6 Xposition Yposition Zposition Zrotation Yrotation Xrotation
  JOINT Hips
  {
    OFFSET 0.0 100.0 0.0
    CHANNELS 6 Xposition Yposition Zposition Zrotation Yrotation Xrotation
    JOINT Spine1
    {
      OFFSET -0.013727 5.003763 -0.053727
      CHANNELS 3 Zrotation Yrotation Xrotation
      JOINT Spine2
      {
        OFFSET -0.0 7.125301 -0.029825
        CHANNELS 3 Zrotation Yrotation Xrotation
        JOINT Chest
        {
          OFFSET -1e-06 7.550063 -0.815971
          CHANNELS 3 Zrotation Yrotation Xrotation
          JOINT Neck1
          {
            OFFSET -0.181677 26.311295 -0.553348
            CHANNELS 3 Zrotation Yrotation Xrotation
            JOINT Neck2
            {
              OFFSET -3e-06 7.709397 2.302585
              CHANNELS 3 Zrotation Yrotation Xrotation
              JOINT Head
              {
                OFFSET -5e-06 6.128916 1.953709
                CHANNELS 3 Zrotation Yrotation Xrotation
                JOINT HeadEnd
                {
                  OFFSET 0.003598 16.065403 -1.835379
                  CHANNELS 3 Zrotation Yrotation Xrotation
                }
                JOINT Jaw
                {
                  OFFSET 0.002637 0.475592 3.094941
                  CHANNELS 3 Zrotation Yrotation Xrotation
                }
                JOINT LeftEye
                {
                  OFFSET 3.206381 5.380205 7.586883
                  CHANNELS 3 Zrotation Yrotation Xrotation
                }
                JOINT RightEye
                {
                  OFFSET -3.22244 5.361869 7.558234
                  CHANNELS 3 Zrotation Yrotation Xrotation
                }
              }
            }
          }
          JOINT LeftShoulder
          {
            OFFSET 1.621652 23.237164 5.113413
            CHANNELS 3 Zrotation Yrotation Xrotation
            JOINT LeftArm
            {
              OFFSET 14.919846 2e-06 -5.502326
              CHANNELS 3 Zrotation Yrotation Xrotation
              JOINT LeftForeArm
              {
                OFFSET 28.739307 0.0 -0.002588
                CHANNELS 3 Zrotation Yrotation Xrotation
                JOINT LeftHand
                {
                  OFFSET 27.093981 -1e-06 0.002609
                  CHANNELS 3 Zrotation Yrotation Xrotation
                  JOINT LeftHandThumb1
                  {
                    OFFSET 2.276482 -1.392045 3.191413
                    CHANNELS 3 Zrotation Yrotation Xrotation
                    JOINT LeftHandThumb2
                    {
                      OFFSET 4.012836 -1.828127 1.641654
                      CHANNELS 3 Zrotation Yrotation Xrotation
                      JOINT LeftHandThumb3
                      {
                        OFFSET 2.798515 0.0 -3e-06
                        CHANNELS 3 Zrotation Yrotation Xrotation
                        JOINT LeftHandThumbEnd
                        {
                          OFFSET 3.180793 -4e-06 4e-06
                          CHANNELS 3 Zrotation Yrotation Xrotation
                        }
                      }
                    }
                  }
                  JOINT LeftHandIndex1
                  {
                    OFFSET 3.247555 -0.531998 2.296169
                    CHANNELS 3 Zrotation Yrotation Xrotation
                    JOINT LeftHandIndex2
                    {
                      OFFSET 6.364578 0.01206 0.1786
                      CHANNELS 3 Zrotation Yrotation Xrotation
                      JOINT LeftHandIndex3
                      {
                        OFFSET 3.662364 0.0 0.0
                        CHANNELS 3 Zrotation Yrotation Xrotation
                        JOINT LeftHandIndex4
                        {
                          OFFSET 2.329242 4e-06 4e-06
                          CHANNELS 3 Zrotation Yrotation Xrotation
                          JOINT LeftHandIndexEnd
                          {
                            OFFSET 2.759615 -0.180537 -0.113024
                            CHANNELS 3 Zrotation Yrotation Xrotation
                          }
                        }
                      }
                    }
                  }
                  JOINT LeftHandMiddle1
                  {
                    OFFSET 3.163495 0.240981 1.000332
                    CHANNELS 3 Zrotation Yrotation Xrotation
                    JOINT LeftHandMiddle2
                    {
                      OFFSET 6.19078 -0.259278 -1.002548
                      CHANNELS 3 Zrotation Yrotation Xrotation
                      JOINT LeftHandMiddle3
                      {
                        OFFSET 4.35652 -4e-06 -1e-06
                        CHANNELS 3 Zrotation Yrotation Xrotation
                        JOINT LeftHandMiddle4
                        {
                          OFFSET 2.996877 -8e-06 0.0
                          CHANNELS 3 Zrotation Yrotation Xrotation
                          JOINT LeftHandMiddleEnd
                          {
                            OFFSET 2.304287 -0.294569 -0.031741
                            CHANNELS 3 Zrotation Yrotation Xrotation
                          }
                        }
                      }
                    }
                  }
                  JOINT LeftHandRing1
                  {
                    OFFSET 2.882643 -0.053652 -0.322543
                    CHANNELS 3 Zrotation Yrotation Xrotation
                    JOINT LeftHandRing2
                    {
                      OFFSET 5.854541 -0.486202 -1.373841
                      CHANNELS 3 Zrotation Yrotation Xrotation
                      JOINT LeftHandRing3
                      {
                        OFFSET 4.350578 0.0 3e-06
                        CHANNELS 3 Zrotation Yrotation Xrotation
                        JOINT LeftHandRing4
                        {
                          OFFSET 2.651321 7e-06 2e-06
                          CHANNELS 3 Zrotation Yrotation Xrotation
                          JOINT LeftHandRingEnd
                          {
                            OFFSET 1.936105 0.077687 -7.1e-05
                            CHANNELS 3 Zrotation Yrotation Xrotation
                          }
                        }
                      }
                    }
                  }
                  JOINT LeftHandPinky1
                  {
                    OFFSET 2.8655 -0.310005 -1.600378
                    CHANNELS 3 Zrotation Yrotation Xrotation
                    JOINT LeftHandPinky2
                    {
                      OFFSET 5.087849 -1.331141 -1.77123
                      CHANNELS 3 Zrotation Yrotation Xrotation
                      JOINT LeftHandPinky3
                      {
                        OFFSET 3.070974 4e-06 0.0
                        CHANNELS 3 Zrotation Yrotation Xrotation
                        JOINT LeftHandPinky4
                        {
                          OFFSET 1.549672 0.0 1e-06
                          CHANNELS 3 Zrotation Yrotation Xrotation
                          JOINT LeftHandPinkyEnd
                          {
                            OFFSET 1.944893 -0.157802 0.057219
                            CHANNELS 3 Zrotation Yrotation Xrotation
                          }
                        }
                      }
                    }
                  }
                }
              }
            }
          }
          JOINT RightShoulder
          {
            OFFSET -1.380118 23.180309 5.214158
            CHANNELS 3 Zrotation Yrotation Xrotation
            JOINT RightArm
            {
              OFFSET -15.037196 1.2e-05 -5.545604
              CHANNELS 3 Zrotation Yrotation Xrotation
              JOINT RightForeArm
              {
                OFFSET -28.736639 2e-06 -0.002597
                CHANNELS 3 Zrotation Yrotation Xrotation
                JOINT RightHand
                {
                  OFFSET -27.133619 -0.0 0.002613
                  CHANNELS 3 Zrotation Yrotation Xrotation
                  JOINT RightHandThumb1
                  {
                    OFFSET -2.274032 -1.383988 3.163127
                    CHANNELS 3 Zrotation Yrotation Xrotation
                    JOINT RightHandThumb2
                    {
                      OFFSET -4.011429 -1.827466 1.640914
                      CHANNELS 3 Zrotation Yrotation Xrotation
                      JOINT RightHandThumb3
                      {
                        OFFSET -2.794935 -4e-06 -3e-06
                        CHANNELS 3 Zrotation Yrotation Xrotation
                        JOINT RightHandThumbEnd
                        {
                          OFFSET -3.183852 4e-06 1e-06
                          CHANNELS 3 Zrotation Yrotation Xrotation
                        }
                      }
                    }
                  }
                  JOINT RightHandIndex1
                  {
                    OFFSET -3.253266 -0.520057 2.282866
                    CHANNELS 3 Zrotation Yrotation Xrotation
                    JOINT RightHandIndex2
                    {
                      OFFSET -6.341917 0.012471 0.178266
                      CHANNELS 3 Zrotation Yrotation Xrotation
                      JOINT RightHandIndex3
                      {
                        OFFSET -3.654871 -8e-06 -0.0
                        CHANNELS 3 Zrotation Yrotation Xrotation
                        JOINT RightHandIndex4
                        {
                          OFFSET -2.327586 0.0 1e-06
                          CHANNELS 3 Zrotation Yrotation Xrotation
                          JOINT RightHandIndexEnd
                          {
                            OFFSET -2.76179 -0.180656 -0.113078
                            CHANNELS 3 Zrotation Yrotation Xrotation
                          }
                        }
                      }
                    }
                  }
                  JOINT RightHandMiddle1
                  {
                    OFFSET -3.168106 0.246593 1.00103
                    CHANNELS 3 Zrotation Yrotation Xrotation
                    JOINT RightHandMiddle2
                    {
                      OFFSET -6.180828 -0.258836 -1.000895
                      CHANNELS 3 Zrotation Yrotation Xrotation
                      JOINT RightHandMiddle3
                      {
                        OFFSET -4.348901 0.0 -0.0
                        CHANNELS 3 Zrotation Yrotation Xrotation
                        JOINT RightHandMiddle4
                        {
                          OFFSET -3.00024 -4e-06 -2e-06
                          CHANNELS 3 Zrotation Yrotation Xrotation
                          JOINT RightHandMiddleEnd
                          {
                            OFFSET -2.30252 -0.29437 -0.031706
                            CHANNELS 3 Zrotation Yrotation Xrotation
                          }
                        }
                      }
                    }
                  }
                  JOINT RightHandRing1
                  {
                    OFFSET -2.88569 -0.067952 -0.308858
                    CHANNELS 3 Zrotation Yrotation Xrotation
                    JOINT RightHandRing2
                    {
                      OFFSET -5.854198 -0.48613 -1.373731
                      CHANNELS 3 Zrotation Yrotation Xrotation
                      JOINT RightHandRing3
                      {
                        OFFSET -4.33881 -4e-06 -0.0
                        CHANNELS 3 Zrotation Yrotation Xrotation
                        JOINT RightHandRing4
                        {
                          OFFSET -2.654903 -4e-06 4e-06
                          CHANNELS 3 Zrotation Yrotation Xrotation
                          JOINT RightHandRingEnd
                          {
                            OFFSET -1.933568 0.077527 -5.2e-05
                            CHANNELS 3 Zrotation Yrotation Xrotation
                          }
                        }
                      }
                    }
                  }
                  JOINT RightHandPinky1
                  {
                    OFFSET -2.866425 -0.342796 -1.584145
                    CHANNELS 3 Zrotation Yrotation Xrotation
                    JOINT RightHandPinky2
                    {
                      OFFSET -5.091371 -1.332055 -1.772385
                      CHANNELS 3 Zrotation Yrotation Xrotation
                      JOINT RightHandPinky3
                      {
                        OFFSET -3.062664 -4e-06 1e-06
                        CHANNELS 3 Zrotation Yrotation Xrotation
                        JOINT RightHandPinky4
                        {
                          OFFSET -1.546529 4e-06 -2e-06
                          CHANNELS 3 Zrotation Yrotation Xrotation
                          JOINT RightHandPinkyEnd
                          {
                            OFFSET -1.945119 -0.157718 0.057211
                            CHANNELS 3 Zrotation Yrotation Xrotation
                          }
                        }
                      }
                    }
                  }
                }
              }
            }
          }
        }
      }
    }
    JOINT LeftLeg
    {
      OFFSET 10.043214 -8.434526 2.595655
      CHANNELS 3 Zrotation Yrotation Xrotation
      JOINT LeftShin
      {
        OFFSET -1e-06 -43.221752 -0.802913
        CHANNELS 3 Zrotation Yrotation Xrotation
        JOINT LeftFoot
        {
          OFFSET 1e-06 -42.155094 -3.481523
          CHANNELS 3 Zrotation Yrotation Xrotation
          JOINT LeftToeBase
          {
            OFFSET 0.0 -5.059472 13.231529
            CHANNELS 3 Zrotation Yrotation Xrotation
            JOINT LeftToeEnd
            {
              OFFSET -0.009607 -1.647619 6.513017
              CHANNELS 3 Zrotation Yrotation Xrotation
            }
          }
        }
      }
    }
    JOINT RightLeg
    {
      OFFSET -10.047278 -8.29526 2.620317
      CHANNELS 3 Zrotation Yrotation Xrotation
      JOINT RightShin
      {
        OFFSET 1e-06 -43.362206 -0.805556
        CHANNELS 3 Zrotation Yrotation Xrotation
        JOINT RightFoot
        {
          OFFSET 2e-06 -42.117393 -3.478398
          CHANNELS 3 Zrotation Yrotation Xrotation
          JOINT RightToeBase
          {
            OFFSET -0.0 -5.079609 13.284196
            CHANNELS 3 Zrotation Yrotation Xrotation
            JOINT RightToeEnd
            {
              OFFSET 0.009532 -1.634378 6.460591
              CHANNELS 3 Zrotation Yrotation Xrotation
            }
          }
        }
      }
    }
  }
}
MOTION
Frames: 4
Frame Time: 0.03333333333333333
0.12719 0.0 -0.681248 0.0 -0.227842 0.0 0.0 99.134079 0.0 -0.388671 -0.064075 -8.957945 1.772004 0.141007 -1.730201 0.056077 1.246986 -5.43156 -1.171977 0.165679 14.745351 0.912276 2.23394 9.299565 -0.843109 0.711388 -3.618029 -0.097813 0.372205 0.904569 7.7e-05 -2.2e-05 6e-06 0.023161 -0.066894 -0.017685 0.790804 -3.761693 -10.603762 -0.746631 3.639919 -10.563066 -13.754459 -4.503328 9.621999 -67.473831 -3.974873 17.388206 0.975161 -28.221918 -0.158057 4.102737 1.023948 4.964871 -5.882108 9.86129 0.702592 -10.936875 -0.360575 7.156206 -0.0 8.77483 -1e-06 -15.917167 18.134558 6.100338 -1.844033 2.498505 -2.507278 -10.163603 4.678948 4.621109 -20.97603 -3e-06 -0.0 -21.226292 2.451697 -3.594004 2e-06 -7e-06 -1e-06 -1.362682 2.240799 -0.746323 -21.334921 0.58491 3.008326 -13.821219 -4e-06 2e-06 -23.887178 -0.249079 -0.839482 -59.867279 2.371756 -1.206375 -0.294024 1.679688 0.833255 -14.218214 0.093214 1.30058 -34.212063 -0.287565 0.967169 -20.033218 0.964538 1.212842 -0.0 -2e-06 -2e-06 -3.44039 0.788233 0.501656 -15.928191 -3.167312 2.999709 -6.338829 -3e-06 1e-06 -18.123455 3.648184 -4.905671 -4e-06 -0.0 -1e-06 22.159367 9.416039 15.305961 57.106953 0.396751 24.487333 0.894819 24.806341 0.340714 -11.854975 -14.075988 -20.776289 2.243543 -5.255038 -3.180159 14.282898 -0.826595 6.952508 -3e-06 -12.69061 2e-06 16.153488 -17.35153 2.478643 1.665666 -1.955922 -2.878299 4.7278 -4.170589 4.993927 11.020531 3e-06 -1e-06 12.109056 -3.735717 -2.866783 -1e-06 0.0 -0.0 1.291987 -1.92855 -1.49809 14.800136 0.567468 3.86561 14.24258 -1.341736 -6.660659 19.631977 0.143926 -0.648245 49.553692 -0.249583 -6.186956 0.353029 -1.511151 -0.031939 20.222801 3.684312 2.316633 18.787283 5e-06 1e-06 10.751633 -0.479869 1.397908 -0.0 0.0 -0.0 3.273808 0.305947 -0.580111 21.486824 11.83038 2.266134 8.16293 2e-06 1e-06 18.399088 -3.798987 -4.940577 3e-06 0.0 -3e-06 4.647618 0.652764 13.69634 0.111 0.202217 2.921004 -7.725076 8.743711 -8.209918 1.621245 -2.147513 -0.553883 0.0 -0.0 2e-06 -4.548001 0.227027 13.535324 -0.077889 0.038796 1.743054 6.54905 -7.141217 -6.443657 -1.401921 0.996747 -0.384934 -0.0 -0.0 -1e-06 
0.174963 0.0 -0.704944 0.0 -0.404566 0.0 0.0 99.175163 0.0 -0.37666 -0.064429 -8.967007 1.778324 0.101336 -1.739798 0.107253 1.369737 -5.413163 -1.293036 0.205741 14.672985 0.745765 2.351877 9.326862 -0.802519 0.63316 -3.627735 -0.023295 0.263889 0.743691 7.7e-05 -2.3e-05 6e-06 0.015259 -0.030459 -0.025717 0.775022 -3.729951 -10.610121 -0.746709 3.682438 -10.568008 -13.877011 -4.435762 9.658478 -67.239334 -3.864542 17.184692 0.742182 -28.543583 -0.107932 4.245857 0.74871 5.67664 -5.88211 9.86129 0.702591 -10.936876 -0.360574 7.156205 -1e-06 8.77483 -1e-06 -15.948241 18.120762 6.101988 -1.844033 2.498506 -2.507277 -10.163607 4.678949 4.621109 -20.976038 -3e-06 -0.0 -21.226301 2.451698 -3.594004 1e-06 -6e-06 -1e-06 -1.362682 2.240799 -0.746323 -21.334925 0.584913 3.008322 -13.821221 -3e-06 0.0 -23.887184 -0.249078 -0.839484 -59.870571 2.428127 -1.129809 -0.294026 1.679689 0.833255 -14.218215 0.093216 1.300581 -34.212063 -0.287563 0.967167 -20.033218 0.964536 1.212844 -1e-06 -1e-06 -1e-06 -3.440389 0.788233 0.501655 -15.928192 -3.167309 2.999707 -6.33883 -1e-06 0.0 -18.123457 3.648183 -4.905675 -4e-06 1e-06 -2e-06 21.838486 9.54878 15.418413 56.104698 1.026633 24.440971 1.09655 27.03364 0.333774 -12.055808 -14.869894 -19.411671 2.243542 -5.255037 -3.180157 14.28289 -0.826596 6.952502 -1e-06 -12.690603 1e-06 16.375824 -17.419348 2.410527 1.665665 -1.955922 -2.878299 4.727798 -4.170588 4.993924 11.020524 2e-06 -1e-06 12.109051 -3.735717 -2.866783 -0.0 0.0 -2e-06 1.291986 -1.928549 -1.498089 14.800125 0.567467 3.865607 14.24257 -1.341738 -6.660656 19.631962 0.143924 -0.648246 49.743668 -0.23457 -6.168172 0.353028 -1.511151 -0.031941 20.222788 3.684307 2.31663 18.78727 2e-06 -2e-06 10.751627 -0.47987 1.397905 -0.0 0.0 -2e-06 3.273805 0.305947 -0.58011 21.486809 11.83037 2.266134 8.162926 1e-06 0.0 18.399076 -3.798987 -4.940577 3e-06 0.0 -2e-06 4.652816 0.78952 14.008682 0.08248 0.149714 2.361561 -7.780836 8.908358 -7.883831 1.626617 -2.191653 -0.614441 0.0 -0.0 2e-06 -4.571344 0.23811 13.515996 -0.075862 0.068986 1.793164 6.534636 -6.990779 -6.280626 -1.409973 0.96301 -0.305965 -0.0 -0.0 -1e-06 
0.213531 0.0 -0.732963 0.0 -0.623601 0.0 0.0 99.189293 0.0 -0.339389 -0.061693 -9.02341 1.765922 0.038755 -1.743783 0.164554 1.451578 -5.40174 -1.432847 0.289131 14.651507 0.594831 2.440285 9.448047 -0.741508 0.536677 -3.653831 0.019697 0.116009 0.664325 7.7e-05 -2.2e-05 7e-06 0.013128 -0.031609 -0.029145 0.763382 -3.730882 -10.620095 -0.739272 3.681525 -10.581731 -14.057173 -4.409518 9.663289 -66.921967 -3.49645 16.851776 0.528319 -29.041803 -0.047231 4.269362 0.512694 6.262895 -5.882107 9.861286 0.702589 -10.936877 -0.360577 7.156208 1e-06 8.774828 0.0 -15.913391 18.0928 6.11885 -1.844033 2.498504 -2.507277 -10.163604 4.678945 4.621108 -20.976036 -6e-06 3e-06 -21.226294 2.451696 -3.593999 1e-06 -6e-06 -1e-06 -1.362682 2.240798 -0.746322 -21.334923 0.584907 3.008322 -13.821218 -6e-06 1e-06 -23.887182 -0.249082 -0.83948 -59.815384 2.476562 -1.140585 -0.294025 1.679689 0.833256 -14.218215 0.093214 1.300581 -34.212067 -0.287567 0.967173 -20.033222 0.964534 1.212845 -1e-06 -1e-06 1e-06 -3.440391 0.788233 0.501654 -15.928194 -3.167312 2.999708 -6.33883 -1e-06 1e-06 -18.123457 3.648181 -4.905673 -4e-06 1e-06 -3e-06 21.264284 9.672657 15.406235 54.248589 2.146144 24.73348 1.445112 32.066261 0.406023 -13.364845 -15.256129 -17.684843 2.243543 -5.255039 -3.18016 14.282899 -0.826594 6.952508 -3e-06 -12.690609 -2e-06 16.542576 -17.419214 2.330302 1.665666 -1.955922 -2.8783 4.727801 -4.170589 4.993926 11.020532 3e-06 0.0 12.109058 -3.735717 -2.866786 -0.0 0.0 -3e-06 1.291985 -1.92855 -1.498091 14.800136 0.567469 3.865611 14.242579 -1.341735 -6.660661 19.631981 0.143927 -0.648244 49.809799 -0.261952 -6.184585 0.353029 -1.51115 -0.031939 20.222803 3.684313 2.316634 18.787285 5e-06 2e-06 10.751634 -0.479868 1.397907 -0.0 0.0 -0.0 3.273808 0.305948 -0.58011 21.486826 11.830379 2.266134 8.16293 2e-06 1e-06 18.399094 -3.798986 -4.940577 2e-06 -0.0 0.0 4.608354 0.909715 14.233923 0.071808 0.116748 2.078588 -7.739078 9.069849 -7.705596 1.633262 -2.190595 -0.712661 0.0 -0.0 2e-06 -4.65088 0.339249 13.489086 -0.057471 0.088433 1.873764 6.565934 -6.936798 -6.229981 -1.412974 1.00086 -0.205119 -0.0 -0.0 -1e-06 
0.24407 0.0 -0.783038 0.0 -0.92192 0.0 0.0 99.182877 0.0 -0.323355 -0.063749 -9.12787 1.748349 -0.008293 -1.749795 0.21912 1.546565 -5.395403 -1.535628 0.339913 14.66989 0.454128 2.466603 9.680002 -0.654668 0.514615 -3.667855 0.052514 0.075277 0.591049 7.7e-05 -2.2e-05 6e-06 0.014448 -0.05638 -0.029295 0.758351 -3.750676 -10.623665 -0.73137 3.651888 -10.594901 -14.187547 -4.390154 9.665171 -66.63446 -3.050568 16.703985 0.418211 -29.490936 -0.028528 4.292139 0.322118 6.713437 -5.882103 9.861281 0.70259 -10.936868 -0.360575 7.156202 1e-06 8.774822 -2e-06 -15.841847 18.040092 6.129487 -1.844032 2.498505 -2.507276 -10.163595 4.678941 4.621106 -20.976017 -6e-06 3e-06 -21.226276 2.451694 -3.593998 2e-06 -6e-06 -2e-06 -1.362681 2.240798 -0.746322 -21.334906 0.584908 3.008321 -13.821209 -5e-06 1e-06 -23.887163 -0.24908 -0.839481 -59.776402 2.514079 -1.158765 -0.294025 1.679688 0.833256 -14.218204 0.093215 1.300581 -34.21204 -0.287564 0.967173 -20.033203 0.964537 1.212846 -0.0 -0.0 0.0 -3.440387 0.788232 0.501656 -15.928181 -3.16731 2.999706 -6.338822 -2e-06 0.0 -18.123442 3.64818 -4.905667 -3e-06 -0.0 -3e-06 20.49658 9.787934 15.215208 51.476048 4.070781 25.398714 1.64988 39.653473 0.512848 -15.394901 -14.807044 -15.358713 2.243541 -5.255034 -3.180157 14.282887 -0.826593 6.952503 -4e-06 -12.690601 1e-06 16.371729 -17.445707 2.345825 1.665666 -1.95592 -2.878298 4.727797 -4.170585 4.993924 11.020524 4e-06 -0.0 12.10905 -3.735714 -2.866783 -0.0 -0.0 0.0 1.291985 -1.928549 -1.498088 14.800125 0.567469 3.865608 14.242568 -1.341735 -6.660655 19.631958 0.143927 -0.648241 49.60796 -0.382763 -6.239515 0.353029 -1.51115 -0.031939 20.222788 3.684311 2.316631 18.78727 4e-06 -1e-06 10.751625 -0.479867 1.397906 -1e-06 0.0 -1e-06 3.273807 0.305947 -0.58011 21.486809 11.830374 2.266132 8.162924 3e-06 -1e-06 18.39908 -3.798984 -4.940573 3e-06 0.0 -1e-06 4.579818 1.079286 14.392517 0.072428 0.095191 2.029245 -7.644934 9.245956 -7.693651 1.638714 -2.143473 -0.799264 -0.0 0.0 2e-06 -4.699123 0.444965 13.490446 -0.047616 0.091962 1.932986 6.635999 -6.791398 -6.232625 -1.410429 1.041429 -0.19864 0.0 0.0 -1e-06 
